<?xml version="1.0" encoding="UTF-8"?>
<svg width="160px" height="48px" viewBox="0 0 160 48" version="1.1" xmlns="http://www.w3.org/2000/svg" xmlns:xlink="http://www.w3.org/1999/xlink">
    <!-- Generator: Sketch 46.2 (44496) - http://www.bohemiancoding.com/sketch -->
    <title>Page 1</title>
    <desc>Created with Sketch.</desc>
    <defs></defs>
    <g id="Symbols" stroke="none" stroke-width="1" fill="none" fill-rule="evenodd">
        <g id="Logo/white">
            <g id="Page-1" fill="#FFFFFF">
                <g id="Group">
                    <polygon id="Fill-1" points="0 0.000422121126 0 32.9800422 24.2846284 32.9800422 24.2846284 27.3939726 6.30719316 27.3939726 6.30719316 19.4186975 22.2570399 19.4186975 22.2570399 13.8326279 6.30719316 13.8326279 6.30719316 5.58719523 24.2846284 5.58719523 24.2846284 0.000422121126"></polygon>
                    <polygon id="Fill-3" points="53.1201447 0.000422121126 53.1201447 19.959716 31.448446 0.000422121126 30.7730522 0.000422121126 30.7730522 32.9800422 37.0802454 32.9800422 37.0802454 13.3816618 58.7533511 32.9800422 59.4280414 32.9800422 59.4280414 0.000422121126"></polygon>
                </g>
                <g id="Group-2" transform="translate(66.000000, 13.000000)">
                    <polygon id="Fill-4" points="0.523334675 0.830376586 0.523334675 6.41714969 9.98588326 6.41714969 9.98588326 33.8107002 16.2930764 33.8107002 16.2930764 6.41714969 25.7091917 6.41714969 25.7091917 0.830376586"></polygon>
                    <path d="M44.8578723,34.396745 C42.7247536,34.396745 40.7872176,34.0660835 39.045968,33.4054639 C37.3040148,32.7448443 35.8160378,31.8140673 34.5848512,30.6124291 C33.352961,29.4114945 32.4003744,27.9537696 31.724277,26.2420684 C31.0481797,24.5296637 30.7104828,22.6223797 30.7104828,20.519513 L30.7104828,0.830376586 L37.017676,0.830376586 L37.017676,20.519513 C37.017676,22.1721172 37.288537,23.5383826 37.8295556,24.6197162 C38.3698706,25.7010498 39.0382291,26.5565486 39.8339274,27.1876197 C40.6296257,27.8186908 41.4858281,28.2541791 42.4025345,28.4940846 C43.3185373,28.7353972 44.1374523,28.8549982 44.8578723,28.8549982 C45.5782924,28.8549982 46.3972074,28.7353972 47.3132102,28.4940846 C48.2292131,28.2541791 49.0854154,27.8186908 49.8818173,27.1876197 C50.6768121,26.5565486 51.3458741,25.7010498 51.8861891,24.6197162 C52.4272077,23.5383826 52.6980687,22.1721172 52.6980687,20.519513 L52.6980687,0.830376586 L59.0052619,0.830376586 L59.0052619,20.519513 C59.0052619,22.6223797 58.6746003,24.5296637 58.0139808,26.2420684 C57.3533612,27.9537696 56.4071064,29.4114945 55.1759197,30.6124291 C53.9440296,31.8140673 52.4567562,32.7448443 50.7155065,33.4054639 C48.9728498,34.0660835 47.0205396,34.396745 44.8578723,34.396745" id="Fill-5"></path>
                    <path d="M72.5210879,17.8162493 L79.7069965,17.8162493 C81.0240144,17.8162493 82.1088657,17.6516221 82.9622539,17.320257 C83.8156422,16.990299 84.4896289,16.5548107 84.9835106,16.0137921 C85.4780959,15.473477 85.8143857,14.8649191 85.9937872,14.1895253 C86.1731886,13.513428 86.2632412,12.8309988 86.2632412,12.1394237 C86.2632412,11.3282476 86.1359013,10.5775755 85.8819251,9.88670394 C85.6265418,9.19583236 85.2374868,8.59571683 84.7133531,8.08424673 C84.1899229,7.57348017 83.5166397,7.16824388 82.6928,6.86783435 C81.8689602,6.56812835 80.8741614,6.41686828 79.7069965,6.41686828 L72.5210879,6.41686828 L72.5210879,17.8162493 Z M72.5210879,23.3129699 L72.5210879,33.8111223 L66.2131912,33.8111223 L66.2131912,0.830095172 L81.1970841,0.830095172 C82.8827545,0.830095172 84.4249037,1.10799158 85.8235316,1.66448793 C87.2228632,2.22028075 88.4195766,3.0005013 89.4115612,4.00726018 C90.4042494,5.01331553 91.1795452,6.21495367 91.7360416,7.61147107 C92.2925379,9.00798846 92.5711379,10.5325493 92.5711379,12.1844499 C92.5711379,13.4163401 92.4058071,14.6102393 92.074442,15.7661477 C91.7437804,16.9227596 91.2850755,17.9668058 90.6976236,18.8975829 C90.1108752,19.8290635 89.3890481,20.6317972 88.5321422,21.3078945 C87.6738293,21.9839919 86.7332027,22.4567675 85.7102625,22.7269251 L93.922629,33.8111223 L86.3990235,33.8111223 L78.7635558,23.3129699 L72.5210879,23.3129699 Z" id="Fill-8"></path>
                </g>
            </g>
            <rect id="Rectangle-3" fill="#FF5959" x="0" y="40" width="60" height="6"></rect>
        </g>
    </g>
</svg>