<svg id="outline" xmlns="http://www.w3.org/2000/svg" viewBox="0 0 727.59 160"><defs><style>.cls-1{fill:#5db82e;}.cls-2{fill:#fff;}</style></defs><title>logo-transportportal-negative</title><path class="cls-1" d="M33.4,88.07V30H21.51V21.49H54.8V30H42.91V88.07Z"/><path class="cls-1" d="M60.5,88.07V21.49H72.39q10.62,0,16,4.12t5.39,13.71a21.18,21.18,0,0,1-2.12,10,11.13,11.13,0,0,1-6.2,5.5l10.7,33.29H86.73L77.15,57.16H70V88.07ZM70,50h2.38c4,0,6.93-.83,8.92-2.51s3-4.4,3-8.19-1-6.52-3-8.19-5-2.51-8.92-2.51H70Z"/><path class="cls-1" d="M100.35,88.07l14.27-66.58h9.51L138.4,88.07h-9.51l-3.57-16.65H113.43l-3.57,16.65Zm14.27-23.78h9.51l-4.75-28.53Z"/><path class="cls-1" d="M144.35,88.07V21.49h7.13l16.65,41.17V21.49h9.51V88.07h-6.76l-17-44.29V88.07Z"/><path class="cls-1" d="M203.73,88.74q-9,0-13.73-5.28t-5.3-14.41l9.52-2.38q.71,14.27,9.51,14.27,7.13,0,7.13-7.14a12.94,12.94,0,0,0-.57-3.92,10.54,10.54,0,0,0-1.77-3.3,22.59,22.59,0,0,0-2.15-2.42q-1-.91-2.64-2.25L191.84,52.4a18.57,18.57,0,0,1-5.22-6.52,20.12,20.12,0,0,1-2-9c0-4.9,1.52-8.81,4.57-11.7s7.08-4.35,12.11-4.35q8.1,0,12.87,4T220.11,36c.08.52.16,1.24.26,2.15l-9.51,2.38c0-.42-.09-1-.19-1.89a14.42,14.42,0,0,0-2.84-7.27,7.84,7.84,0,0,0-6.48-2.73,7,7,0,0,0-5.28,1.92,7.31,7.31,0,0,0-1.85,5.33,11.58,11.58,0,0,0,4.75,9.4l11.89,9.51q9.51,7.69,9.51,18.39,0,7.32-4.51,11.44T203.73,88.74Z"/><path class="cls-1" d="M227.07,88.07V21.49h16.64q16.65,0,16.65,19,0,8.15-4.29,12.39t-12.36,4.26h-7.13V88.07Zm9.51-38H239a30.55,30.55,0,0,0,5.29-.37,9.83,9.83,0,0,0,3.64-1.39,5.65,5.65,0,0,0,2.27-2.92,14.29,14.29,0,0,0,.69-4.83,26.52,26.52,0,0,0-.52-5.78,7.56,7.56,0,0,0-1.91-3.62,7.45,7.45,0,0,0-3.61-1.95,25.48,25.48,0,0,0-5.85-.54h-2.38Z"/><path class="cls-1" d="M284.15,88.74a21.86,21.86,0,0,1-8.6-1.53,13.22,13.22,0,0,1-5.7-4.45,19.58,19.58,0,0,1-3.08-6.9,38.62,38.62,0,0,1-1-9.19V42.52a38,38,0,0,1,1-9.14,19,19,0,0,1,3.08-6.78,12.83,12.83,0,0,1,5.7-4.33,22.86,22.86,0,0,1,8.6-1.45q9.74,0,14.05,5.57t4.31,16.13V66.67a37.79,37.79,0,0,1-1,9.12,19.92,19.92,0,0,1-3.1,6.91,13.32,13.32,0,0,1-5.7,4.5A21.76,21.76,0,0,1,284.15,88.74Zm-6.93-10.81c1.28,2,3.59,3,6.93,3s5.66-1,6.93-3S293,73,293,69.05V40.14q0-5.79-1.9-8.66c-1.26-1.9-3.58-2.86-7-2.86s-5.68,1-6.94,2.86-1.9,4.8-1.9,8.66V69.05Q275.31,74.91,277.22,77.93Z"/><path class="cls-1" d="M310,88.07V21.49H321.9q10.62,0,16,4.12t5.39,13.71a21.18,21.18,0,0,1-2.12,10,11.13,11.13,0,0,1-6.2,5.5l10.7,33.29h-9.44l-9.59-30.91h-7.13V88.07Zm9.51-38h2.38c4,0,6.93-.83,8.92-2.51s3-4.4,3-8.19-1-6.52-3-8.19-5-2.51-8.92-2.51h-2.38Z"/><path class="cls-1" d="M359.36,88.07V30H347.47V21.49h33.29V30H368.87V88.07Z"/><path class="cls-1" d="M386.46,88.07V21.49h16.65q16.65,0,16.64,19,0,8.15-4.29,12.39t-12.35,4.26H396V88.07ZM396,50h2.38a30.68,30.68,0,0,0,5.3-.37,9.9,9.9,0,0,0,3.64-1.39,5.63,5.63,0,0,0,2.26-2.92,14.29,14.29,0,0,0,.69-4.83,25.91,25.91,0,0,0-.52-5.78,7,7,0,0,0-5.52-5.57,25.48,25.48,0,0,0-5.85-.54H396Z"/><path class="cls-1" d="M443.55,88.74a21.79,21.79,0,0,1-8.6-1.53,13.19,13.19,0,0,1-5.71-4.45,19.58,19.58,0,0,1-3.08-6.9,38.62,38.62,0,0,1-1-9.19V42.52a38,38,0,0,1,1-9.14,19,19,0,0,1,3.08-6.78A12.81,12.81,0,0,1,435,22.27a22.79,22.79,0,0,1,8.6-1.45q9.74,0,14,5.57t4.31,16.13V66.67a38.33,38.33,0,0,1-1,9.12,19.94,19.94,0,0,1-3.11,6.91,13.32,13.32,0,0,1-5.7,4.5A21.71,21.71,0,0,1,443.55,88.74Zm-6.93-10.81c1.27,2,3.58,3,6.93,3s5.65-1,6.93-3,1.91-5,1.91-8.88V40.14q0-5.79-1.9-8.66c-1.26-1.9-3.57-2.86-6.94-2.86s-5.69,1-6.95,2.86-1.9,4.8-1.9,8.66V69.05Q434.7,74.91,436.62,77.93Z"/><path class="cls-1" d="M469.4,88.07V21.49h11.89q10.63,0,16,4.12t5.38,13.71a21.19,21.19,0,0,1-2.11,10,11.18,11.18,0,0,1-6.21,5.5l10.7,33.29h-9.44l-9.58-30.91h-7.14V88.07Zm9.51-38h2.38c4,0,6.94-.83,8.92-2.51s3-4.4,3-8.19-1-6.52-3-8.19-5-2.51-8.92-2.51h-2.38Z"/><path class="cls-1" d="M518.75,88.07V30H506.86V21.49h33.3V30H528.27V88.07Z"/><path class="cls-1" d="M537.43,88.07l14.26-66.58h9.52l14.26,66.58H566l-3.57-16.65H550.5l-3.56,16.65Zm14.26-23.78h9.52l-4.76-28.53Z"/><path class="cls-1" d="M581.42,88.07V21.49h9.52V80.94h16.64v7.13Z"/><path class="cls-1" d="M612.05,88.07V78.56h9.51v9.51Z"/><path class="cls-1" d="M628.64,88.07V21.49h7.13l16.65,41.17V21.49h9.51V88.07h-6.77l-17-44.29V88.07Z"/><path class="cls-1" d="M687.77,88.74a21.82,21.82,0,0,1-8.6-1.53,13.25,13.25,0,0,1-5.71-4.45,19.58,19.58,0,0,1-3.08-6.9,38.62,38.62,0,0,1-1-9.19V42.52a38,38,0,0,1,1-9.14,19,19,0,0,1,3.08-6.78,12.86,12.86,0,0,1,5.71-4.33,22.82,22.82,0,0,1,8.6-1.45q9.74,0,14,5.57t4.31,16.13V66.67a38.33,38.33,0,0,1-1,9.12A19.94,19.94,0,0,1,702,82.7a13.32,13.32,0,0,1-5.7,4.5A21.71,21.71,0,0,1,687.77,88.74Zm-6.93-10.81c1.27,2,3.58,3,6.93,3s5.65-1,6.93-3,1.91-5,1.91-8.88V40.14q0-5.79-1.9-8.66c-1.26-1.9-3.57-2.86-6.94-2.86s-5.69,1-6.95,2.86-1.9,4.8-1.9,8.66V69.05Q678.92,74.91,680.84,77.93Z"/><path class="cls-2" d="M27.46,138.53V108.47h3.22l7.51,18.59V108.47h4.3v30.06H39.44l-7.69-20v20Z"/><path class="cls-2" d="M50.41,138.83a3.81,3.81,0,0,1-3-1.55,5.44,5.44,0,0,1-1.25-3.5,7.35,7.35,0,0,1,.53-2.83,9.05,9.05,0,0,1,1.12-2,7,7,0,0,1,2-1.58,20.39,20.39,0,0,1,2.08-1.11c.47-.2,1.29-.53,2.45-1l.45-.19V123.5a5.71,5.71,0,0,0-.45-2.52,2,2,0,0,0-3.28-.14,4.43,4.43,0,0,0-.55,2.11c0,.12,0,.3,0,.55h-4.3a7.11,7.11,0,0,1,1.73-4.92,6.13,6.13,0,0,1,4.71-1.82,6.12,6.12,0,0,1,4.73,1.85A7,7,0,0,1,59,123.5v9.66a20.91,20.91,0,0,0,.55,5.37H55.27l-.57-3.22c-.22.45-.4.79-.54,1a10,10,0,0,1-.62.91,3.42,3.42,0,0,1-.8.84,3.81,3.81,0,0,1-1,.51A3.73,3.73,0,0,1,50.41,138.83Zm2.14-3.52a1.65,1.65,0,0,0,.89-.27,2.8,2.8,0,0,0,.64-.52c.15-.17.33-.39.54-.67a.48.48,0,0,1,.08-.12v-5.94c-.18.13-.47.32-.89.57l-1,.63c-.24.17-.54.39-.89.67a4.7,4.7,0,0,0-.8.83,4.3,4.3,0,0,0-.51,1,3.43,3.43,0,0,0-.21,1.19C50.41,134.42,51.12,135.31,52.55,135.31Z"/><path class="cls-2" d="M68.75,138.83a5.74,5.74,0,0,1-4.25-1.58,8.16,8.16,0,0,1-2.19-4.09l3.22-1.07q1.16,3.22,3.22,3.22a2,2,0,0,0,2.15-2.15,3.23,3.23,0,0,0-1.08-2.48l-4.29-3.22a11.8,11.8,0,0,1-1.21-.92,9.13,9.13,0,0,1-1-1,4.33,4.33,0,0,1-.76-1.4,5,5,0,0,1-.26-1.67,5.15,5.15,0,0,1,1.75-4.21,7.06,7.06,0,0,1,4.69-1.46,6.68,6.68,0,0,1,2.51.44,5.21,5.21,0,0,1,1.89,1.25,7.43,7.43,0,0,1,1.26,1.79,9.73,9.73,0,0,1,.78,2.19L72,123.5a10.08,10.08,0,0,0-.47-1.1,8,8,0,0,0-.63-1,2.82,2.82,0,0,0-.93-.83,2.52,2.52,0,0,0-1.19-.29,2,2,0,0,0-2.15,2.15,2.29,2.29,0,0,0,1.07,1.81l4.3,3.22a11.56,11.56,0,0,1,1.23,1.1,9.74,9.74,0,0,1,1,1.22,5.54,5.54,0,0,1,.74,1.55,6.37,6.37,0,0,1,.25,1.83,5.15,5.15,0,0,1-1.75,4.21A7.11,7.11,0,0,1,68.75,138.83Z"/><path class="cls-2" d="M77.54,143.9a6.17,6.17,0,0,1-2.14-.29v-3.05a5.39,5.39,0,0,0,1.07.12c1.43,0,2.15-.84,2.15-2.5V117.06h4.29v21.59a5.13,5.13,0,0,1-1.43,3.86A5.42,5.42,0,0,1,77.54,143.9Zm1.08-30.06v-4.3h4.29v4.3Z"/><path class="cls-2" d="M97.92,136.82q-1.48,2-5,2t-4.94-2a9.61,9.61,0,0,1-1.5-5.81v-6.44a9.59,9.59,0,0,1,1.5-5.8q1.48-2,4.94-2t5,2a9.59,9.59,0,0,1,1.5,5.8V131A9.61,9.61,0,0,1,97.92,136.82Zm-5.74-1.65a2.33,2.33,0,0,0,1.59,0,1.93,1.93,0,0,0,.57-.32,1.46,1.46,0,0,0,.38-.57,6,6,0,0,0,.23-.67,3.5,3.5,0,0,0,.12-.82c0-.36,0-.64,0-.84s0-.52,0-.94v-6.44c0-.41,0-.72,0-.93s0-.49,0-.85A3.59,3.59,0,0,0,95,122a5.9,5.9,0,0,0-.23-.66,1.46,1.46,0,0,0-.38-.57,1.94,1.94,0,0,0-.57-.33,2.5,2.5,0,0,0-1.59,0,1.94,1.94,0,0,0-.57.33,1.46,1.46,0,0,0-.38.57A5.9,5.9,0,0,0,91,122a3.59,3.59,0,0,0-.12.82c0,.36,0,.65,0,.85s0,.52,0,.93V131c0,.42,0,.73,0,.94s0,.48,0,.84a3.5,3.5,0,0,0,.12.82,6,6,0,0,0,.23.67,1.46,1.46,0,0,0,.38.57A1.93,1.93,0,0,0,92.18,135.17Z"/><path class="cls-2" d="M103.13,138.53V117.06h4.3v2.31c.63-.58,1.15-1,1.56-1.33a6.41,6.41,0,0,1,1.67-.87,6.1,6.1,0,0,1,2.27-.41,2.79,2.79,0,0,1,2.23,1,3.69,3.69,0,0,1,.85,2.47v18.3h-4.29v-16.1a3.24,3.24,0,0,0-.32-1.64,1.4,1.4,0,0,0-1.29-.51,2.68,2.68,0,0,0-1.1.23,5,5,0,0,0-.81.41c-.18.13-.44.34-.77.62v17Z"/><path class="cls-2" d="M123.76,138.83a3.81,3.81,0,0,1-3.05-1.55,5.44,5.44,0,0,1-1.25-3.5A7.35,7.35,0,0,1,120,131a9.46,9.46,0,0,1,1.12-2,7,7,0,0,1,2-1.58,20.39,20.39,0,0,1,2.08-1.11c.47-.2,1.29-.53,2.45-1l.45-.19V123.5a5.71,5.71,0,0,0-.45-2.52,2,2,0,0,0-3.28-.14,4.32,4.32,0,0,0-.54,2.11,4,4,0,0,0,0,.55h-4.3a7.11,7.11,0,0,1,1.73-4.92,7,7,0,0,1,9.44,0,7,7,0,0,1,1.72,4.89v9.66a20.91,20.91,0,0,0,.55,5.37h-4.28l-.57-3.22c-.22.45-.4.79-.54,1s-.35.55-.61.91a3.44,3.44,0,0,1-1.82,1.35A3.73,3.73,0,0,1,123.76,138.83Zm2.15-3.52a1.64,1.64,0,0,0,.88-.27,2.8,2.8,0,0,0,.64-.52c.15-.17.33-.39.54-.67a.48.48,0,0,1,.08-.12v-5.94c-.18.13-.47.32-.89.57l-1,.63c-.24.17-.54.39-.88.67a4.45,4.45,0,0,0-.81.83,3.92,3.92,0,0,0-.5,1,3.22,3.22,0,0,0-.22,1.19C123.76,134.42,124.47,135.31,125.91,135.31Z"/><path class="cls-2" d="M136.34,138.53V108.47h4.29v30.06Z"/><path class="cls-2" d="M150.88,138.83a4.71,4.71,0,0,1-3.68-1.29,5.87,5.87,0,0,1-1.18-3.91V120.28h-2.15v-3.22H146v-7.52h4.29v7.52h3.22v3.22h-3.22v12.53a3.87,3.87,0,0,0,.36,1.9,1.51,1.51,0,0,0,1.42.6,9.5,9.5,0,0,0,1.44-.17v3.49A22.88,22.88,0,0,1,150.88,138.83Z"/><path class="cls-2" d="M170.7,138.83a4.7,4.7,0,0,1-3.68-1.29,5.87,5.87,0,0,1-1.18-3.91V120.28h-2.15v-3.22h2.15v-7.52h4.29v7.52h3.22v3.22h-3.22v12.53a3.87,3.87,0,0,0,.36,1.9,1.51,1.51,0,0,0,1.42.6,9.64,9.64,0,0,0,1.44-.17v3.49A22.88,22.88,0,0,1,170.7,138.83Z"/><path class="cls-2" d="M176.86,113.84v-4.3h4.3v4.3Zm0,24.69V117.06h4.3v21.47Z"/><path class="cls-2" d="M185.31,138.53V108.47h4.29v30.06Z"/><path class="cls-2" d="M200.58,145h-1.3l-1.38,0a12.8,12.8,0,0,1-1.46-.12c-.39-.06-.84-.14-1.34-.24a5.34,5.34,0,0,1-1.25-.37,7.63,7.63,0,0,1-.95-.56,2,2,0,0,1-.68-.78,2.32,2.32,0,0,1-.22-1,4.69,4.69,0,0,1,.89-2.87,6.48,6.48,0,0,1,2.33-1.89,4.41,4.41,0,0,1-1.51-.72,1.4,1.4,0,0,1-.64-1.16,2.72,2.72,0,0,1,.07-.61,4.45,4.45,0,0,1,.15-.58,2.69,2.69,0,0,1,.27-.59l.29-.53a4.94,4.94,0,0,1,.36-.54l.34-.47.37-.45c.17-.22.28-.34.3-.38a9.65,9.65,0,0,1-2.15-6.44,10.52,10.52,0,0,1,.71-4,5.9,5.9,0,0,1,5.73-3.84,5.93,5.93,0,0,1,2.08.33,4.59,4.59,0,0,1,1.45.85,6.54,6.54,0,0,1,1.1,1.35,4.3,4.3,0,0,1,3.62-2.52h.34v3.51h-.27c-.48,0-.84,0-1.09,0a3.35,3.35,0,0,0-.82.14,1.56,1.56,0,0,0-.72.39,8.45,8.45,0,0,1,.53,1.74,9.85,9.85,0,0,1,.22,2,10.68,10.68,0,0,1-.68,4,6,6,0,0,1-2.16,2.77,6.14,6.14,0,0,1-3.6,1l-2.16-.26a1.76,1.76,0,0,1-.17.3l-.21.34a1.69,1.69,0,0,0-.14.35,1.15,1.15,0,0,0-.07.39.89.89,0,0,0,.42.74,2.9,2.9,0,0,0,1.16.44,12.67,12.67,0,0,0,1.41.21c.46,0,1,.08,1.52.11s.95.06,1.16.09c.64.09,1.21.2,1.7.31a8.92,8.92,0,0,1,1.53.52,4.31,4.31,0,0,1,1.28.8,3.61,3.61,0,0,1,.83,1.21,4.11,4.11,0,0,1,.33,1.69,5.18,5.18,0,0,1-.41,2.1,4.42,4.42,0,0,1-1.1,1.53,5.76,5.76,0,0,1-1.66,1,9.27,9.27,0,0,1-2.05.57A15.1,15.1,0,0,1,200.58,145Zm0-3.17h.82c.24,0,.52,0,.83-.07a4.14,4.14,0,0,0,.81-.16,3.19,3.19,0,0,0,.66-.28,1.25,1.25,0,0,0,.47-.44,1.15,1.15,0,0,0,.17-.63c0-1.2-1.14-1.93-3.44-2.2l-3.54-.42a4.19,4.19,0,0,0-1.57,3.22.63.63,0,0,0,.18.46,1.25,1.25,0,0,0,.55.3c.24.07.48.12.74.17a7,7,0,0,0,.89.08l.89,0,.87,0Zm-1.07-12.64q2.69,0,2.69-4.57a11.24,11.24,0,0,0-.12-1.7,7.5,7.5,0,0,0-.4-1.53,2.68,2.68,0,0,0-.84-1.17,2.08,2.08,0,0,0-1.33-.43,2.11,2.11,0,0,0-1.34.43,2.58,2.58,0,0,0-.83,1.17,7.47,7.47,0,0,0-.39,1.53,11.24,11.24,0,0,0-.12,1.7Q196.83,129.15,199.51,129.14Z"/><path class="cls-2" d="M214.38,138.83a3.79,3.79,0,0,1-3-1.55,5.39,5.39,0,0,1-1.25-3.5,7.17,7.17,0,0,1,.53-2.83,9.06,9.06,0,0,1,1.11-2,7.1,7.1,0,0,1,2-1.58,20.39,20.39,0,0,1,2.08-1.11c.47-.2,1.29-.53,2.45-1l.46-.19V123.5a5.56,5.56,0,0,0-.46-2.52,1.71,1.71,0,0,0-1.69-.9,1.73,1.73,0,0,0-1.59.76,4.32,4.32,0,0,0-.54,2.11c0,.12,0,.3,0,.55h-4.29a7.06,7.06,0,0,1,1.73-4.92,7,7,0,0,1,9.43,0A6.9,6.9,0,0,1,223,123.5v9.66a21.37,21.37,0,0,0,.55,5.37h-4.27l-.57-3.22c-.23.45-.41.79-.55,1a9.59,9.59,0,0,1-.61.91,3.63,3.63,0,0,1-.81.84,3.6,3.6,0,0,1-1,.51A3.83,3.83,0,0,1,214.38,138.83Zm2.15-3.52a1.64,1.64,0,0,0,.88-.27,2.88,2.88,0,0,0,.65-.52c.14-.17.32-.39.53-.67a.46.46,0,0,1,.09-.12v-5.94c-.18.13-.48.32-.89.57l-1,.63c-.25.17-.55.39-.89.67a4.45,4.45,0,0,0-.81.83,4.3,4.3,0,0,0-.5,1,3.22,3.22,0,0,0-.22,1.19C214.38,134.42,215.1,135.31,216.53,135.31Z"/><path class="cls-2" d="M227,138.53V117.06h4.29v2.31c.64-.58,1.16-1,1.56-1.33a6.58,6.58,0,0,1,1.67-.87,6.14,6.14,0,0,1,2.27-.41,2.78,2.78,0,0,1,2.23,1,3.7,3.7,0,0,1,.86,2.47v18.3h-4.3v-16.1a3.14,3.14,0,0,0-.32-1.64,1.4,1.4,0,0,0-1.29-.51,2.72,2.72,0,0,0-1.1.23,5,5,0,0,0-.81.41c-.18.13-.44.34-.77.62v17Z"/><path class="cls-2" d="M250.79,145h-1.31l-1.38,0a13,13,0,0,1-1.46-.12l-1.34-.24a5.34,5.34,0,0,1-1.25-.37,7.63,7.63,0,0,1-1-.56,2,2,0,0,1-.67-.78,2.2,2.2,0,0,1-.23-1,4.63,4.63,0,0,1,.9-2.87,6.36,6.36,0,0,1,2.32-1.89,4.41,4.41,0,0,1-1.51-.72,1.4,1.4,0,0,1-.64-1.16,2.72,2.72,0,0,1,.07-.61,4.45,4.45,0,0,1,.15-.58,4.14,4.14,0,0,1,.27-.59l.29-.53c.07-.13.2-.31.36-.54l.35-.47.36-.45a4.79,4.79,0,0,0,.3-.38,9.65,9.65,0,0,1-2.15-6.44,10.52,10.52,0,0,1,.71-4,6.15,6.15,0,0,1,2.19-2.8,6,6,0,0,1,3.54-1,5.93,5.93,0,0,1,2.08.33,4.65,4.65,0,0,1,1.46.85,6.52,6.52,0,0,1,1.09,1.35,4.3,4.3,0,0,1,3.63-2.52h.33v3.51H258c-.48,0-.84,0-1.09,0a3.35,3.35,0,0,0-.82.14,1.56,1.56,0,0,0-.72.39,8.45,8.45,0,0,1,.53,1.74,9.9,9.9,0,0,1,.23,2,10.88,10.88,0,0,1-.68,4,6.07,6.07,0,0,1-2.17,2.77,6.14,6.14,0,0,1-3.6,1l-2.16-.26a1.76,1.76,0,0,1-.17.3l-.21.34a1.69,1.69,0,0,0-.14.35,1.46,1.46,0,0,0-.07.39.89.89,0,0,0,.42.74,2.9,2.9,0,0,0,1.16.44,12.5,12.5,0,0,0,1.42.21c.45,0,1,.08,1.52.11s.94.06,1.15.09c.64.09,1.21.2,1.7.31a8.92,8.92,0,0,1,1.53.52,4.31,4.31,0,0,1,1.28.8,3.63,3.63,0,0,1,.84,1.21,4.28,4.28,0,0,1,.32,1.69,5,5,0,0,1-.41,2.1,4.42,4.42,0,0,1-1.1,1.53,5.76,5.76,0,0,1-1.66,1,9.34,9.34,0,0,1-2,.57A15.29,15.29,0,0,1,250.79,145Zm0-3.17h.81c.24,0,.52,0,.83-.07a4.26,4.26,0,0,0,.82-.16,3.36,3.36,0,0,0,.65-.28,1.21,1.21,0,0,0,.48-.44,1.23,1.23,0,0,0,.16-.63c0-1.2-1.14-1.93-3.43-2.2l-3.54-.42a3.84,3.84,0,0,0-1.12,1.36,4,4,0,0,0-.46,1.86.63.63,0,0,0,.18.46,1.25,1.25,0,0,0,.55.3c.24.07.49.12.74.17a7,7,0,0,0,.9.08l.88,0,.87,0Zm-1.08-12.64q2.68,0,2.69-4.57a11.24,11.24,0,0,0-.12-1.7,7.5,7.5,0,0,0-.4-1.53,2.68,2.68,0,0,0-.84-1.17,2.08,2.08,0,0,0-1.33-.43,2.11,2.11,0,0,0-1.34.43,2.66,2.66,0,0,0-.83,1.17,8.18,8.18,0,0,0-.39,1.53,11.24,11.24,0,0,0-.12,1.7Q247,129.15,249.71,129.14Z"/><path class="cls-2" d="M266.74,138.83a5.77,5.77,0,0,1-4.25-1.58,8.16,8.16,0,0,1-2.19-4.09l3.22-1.07c.77,2.15,1.85,3.22,3.22,3.22a2.15,2.15,0,0,0,1.59-.56,2.19,2.19,0,0,0,.56-1.59,3.25,3.25,0,0,0-1.07-2.48l-4.3-3.22a11.56,11.56,0,0,1-1.2-.92,7.67,7.67,0,0,1-1-1,4.55,4.55,0,0,1-.77-1.4,5.27,5.27,0,0,1-.26-1.67,5.16,5.16,0,0,1,1.76-4.21,7,7,0,0,1,4.68-1.46,6.73,6.73,0,0,1,2.52.44,5.21,5.21,0,0,1,1.89,1.25,7.43,7.43,0,0,1,1.26,1.79,9.73,9.73,0,0,1,.78,2.19L270,123.5a10.19,10.19,0,0,0-.46-1.1,8,8,0,0,0-.63-1,3,3,0,0,0-.93-.83,2.53,2.53,0,0,0-1.2-.29,1.95,1.95,0,0,0-2.14,2.15,2.29,2.29,0,0,0,1.07,1.81l4.29,3.22a10.21,10.21,0,0,1,2.24,2.32,5.26,5.26,0,0,1,.73,1.55,6.37,6.37,0,0,1,.26,1.83,5.16,5.16,0,0,1-1.76,4.21A7.11,7.11,0,0,1,266.74,138.83Z"/><path class="cls-2" d="M276.35,145V117.06h4.3v2.15c.34-.37.58-.63.72-.76s.36-.34.69-.62a4,4,0,0,1,.86-.59,6,6,0,0,1,.92-.32,4.18,4.18,0,0,1,1.17-.16,4.64,4.64,0,0,1,1.94.39,4.78,4.78,0,0,1,1.41.95,4.47,4.47,0,0,1,.94,1.58,14.88,14.88,0,0,1,.58,1.87,14.48,14.48,0,0,1,.29,2.27c.07,1,.11,1.72.12,2.3s0,1.4,0,2.43v.32a26.26,26.26,0,0,1-.14,2.71,17.1,17.1,0,0,1-.52,2.66,10.1,10.1,0,0,1-1,2.34,4.87,4.87,0,0,1-1.54,1.62,4,4,0,0,1-2.21.63,6,6,0,0,1-4.29-2.23V145Zm7.52-9.66a1.51,1.51,0,0,0,1.15-.5,3.22,3.22,0,0,0,.67-1.44,13.22,13.22,0,0,0,.28-1.84c0-.61.08-1.33.08-2.14l0-2.84v-1.21q0-.47-.06-1.23a10.21,10.21,0,0,0-.15-1.25,9.87,9.87,0,0,0-.27-1.07,2.92,2.92,0,0,0-.45-.92,2,2,0,0,0-.67-.57,1.79,1.79,0,0,0-.93-.24,3.64,3.64,0,0,0-.48,0c-.15,0-.3.06-.47.11l-.4.14a3.33,3.33,0,0,0-.41.19l-.36.19L281,121l-.33.2v13.29A6.2,6.2,0,0,0,283.87,135.31Z"/><path class="cls-2" d="M297.06,138.83a2.83,2.83,0,0,1-2.27-1,3.65,3.65,0,0,1-.85-2.47v-18.3h4.29v17a1.5,1.5,0,0,0,.41,1.09,1.44,1.44,0,0,0,1.07.42,3.25,3.25,0,0,0,.69-.08,2.42,2.42,0,0,0,.66-.3l.51-.33c.12-.09.3-.23.53-.43l.43-.37v-17h4.29v21.47h-4.29v-2.32l-.93.81c-.2.17-.5.39-.9.68a6,6,0,0,1-1.07.62,6.36,6.36,0,0,1-1.15.35A6,6,0,0,1,297.06,138.83Z"/><path class="cls-2" d="M310.78,138.53V117.06h4.29v2.31c.64-.58,1.16-1,1.56-1.33a6.58,6.58,0,0,1,1.67-.87,6.14,6.14,0,0,1,2.27-.41,2.78,2.78,0,0,1,2.23,1,3.7,3.7,0,0,1,.86,2.47v18.3h-4.3v-16.1a3.14,3.14,0,0,0-.32-1.64,1.4,1.4,0,0,0-1.29-.51,2.72,2.72,0,0,0-1.1.23,5,5,0,0,0-.81.41c-.18.13-.44.34-.77.62v17Z"/><path class="cls-2" d="M327.63,138.53V108.47h4.3V125l5.37-7.93h4.29l-4.81,7.5,4.81,14H337.3l-3.22-10.38L331.93,131v7.52Z"/><path class="cls-2" d="M351.05,138.83a4.72,4.72,0,0,1-3.69-1.29,5.87,5.87,0,0,1-1.18-3.91V120.28H344v-3.22h2.14v-7.52h4.3v7.52h3.22v3.22h-3.22v12.53a3.89,3.89,0,0,0,.35,1.9,1.51,1.51,0,0,0,1.42.6,9.74,9.74,0,0,0,1.45-.17v3.49A23.2,23.2,0,0,1,351.05,138.83Z"/><path class="cls-2" d="M366,138.53V120.28h-2.15v-3.22H366v-.82a21.56,21.56,0,0,1,.1-2.31,7.59,7.59,0,0,1,.41-1.83,3.59,3.59,0,0,1,.83-1.41,3.89,3.89,0,0,1,1.41-.84,6.57,6.57,0,0,1,2.11-.31,23,23,0,0,1,2.65.2v3.19l-.69-.09a6.38,6.38,0,0,0-.75-.08,1.46,1.46,0,0,0-1.43.68,4.59,4.59,0,0,0-.35,2v1.61h3.22v3.22h-3.22v18.25Z"/><path class="cls-2" d="M387.33,136.82q-1.5,2-4.95,2t-4.95-2a9.68,9.68,0,0,1-1.49-5.81v-6.44a9.66,9.66,0,0,1,1.49-5.8q1.5-2,4.95-2t4.95,2a9.59,9.59,0,0,1,1.49,5.8V131A9.61,9.61,0,0,1,387.33,136.82Zm-5.75-1.65a2.36,2.36,0,0,0,1.6,0,1.93,1.93,0,0,0,.57-.32,1.46,1.46,0,0,0,.38-.57c.1-.25.17-.48.23-.67a3.5,3.5,0,0,0,.12-.82c0-.36,0-.64,0-.84s0-.52,0-.94v-6.44c0-.41,0-.72,0-.93s0-.49,0-.85a3.59,3.59,0,0,0-.12-.82c-.06-.19-.13-.41-.23-.66a1.46,1.46,0,0,0-.38-.57,1.94,1.94,0,0,0-.57-.33,2.53,2.53,0,0,0-1.6,0,2.24,2.24,0,0,0-.57.33,1.45,1.45,0,0,0-.37.57q-.15.38-.24.66a5.23,5.23,0,0,0-.12.82c0,.36,0,.65,0,.85s0,.52,0,.93V131c0,.42,0,.73,0,.94s0,.48,0,.84a5,5,0,0,0,.12.82c.06.19.14.42.24.67a1.45,1.45,0,0,0,.37.57A2.23,2.23,0,0,0,381.58,135.17Z"/><path class="cls-2" d="M392.54,138.53V117.06h4.29v2.87a6.6,6.6,0,0,1,1.91-2.23,4.46,4.46,0,0,1,2.77-.94l.69.06v4.75a6.51,6.51,0,0,0-2.38-.47,3,3,0,0,0-2.17.81,2.86,2.86,0,0,0-.82,2.13v14.49Z"/><path class="cls-2" d="M415.44,138.53l-4.83-21.47h4.13l3,16.12,2.71-16.12h4.13l-4.8,21.47Z"/><path class="cls-2" d="M433.12,138.83a6.25,6.25,0,0,1-2.7-.54,4.76,4.76,0,0,1-1.83-1.4,6.62,6.62,0,0,1-1.1-2.21,15.32,15.32,0,0,1-.58-2.7,30.64,30.64,0,0,1-.19-3.15c0-.94,0-1.87,0-2.81,0-1.12.11-2.12.22-3a12.15,12.15,0,0,1,.62-2.53,6.07,6.07,0,0,1,1.13-2,5,5,0,0,1,1.83-1.27,6.88,6.88,0,0,1,2.64-.47,7.42,7.42,0,0,1,2.42.36,4.31,4.31,0,0,1,1.75,1.09,6.62,6.62,0,0,1,1.15,1.62,7.76,7.76,0,0,1,.7,2.15,22.41,22.41,0,0,1,.33,2.49q.09,1.23.09,2.82v.5H431v1.76c0,.42,0,.85,0,1.29l.06,1.3a5.88,5.88,0,0,0,.19,1.21,4.84,4.84,0,0,0,.37,1,1.63,1.63,0,0,0,.61.69,1.74,1.74,0,0,0,.93.25,2.2,2.2,0,0,0,1.11-.26,1.52,1.52,0,0,0,.64-.78,5.09,5.09,0,0,0,.3-1,13.07,13.07,0,0,0,.1-1.31V131h4.26v.86a8.24,8.24,0,0,1-1.7,5.2A6,6,0,0,1,433.12,138.83ZM431,125.65h4.26v-1.3a12.5,12.5,0,0,0-.1-1.49,6.46,6.46,0,0,0-.29-1.27,2,2,0,0,0-.65-1,1.73,1.73,0,0,0-1.07-.33,1.74,1.74,0,0,0-1.1.35,2,2,0,0,0-.65,1,7.85,7.85,0,0,0-.3,1.3,15.05,15.05,0,0,0-.1,1.52Z"/><path class="cls-2" d="M450.15,145h-1.31l-1.37,0a12.8,12.8,0,0,1-1.46-.12c-.39-.06-.84-.14-1.34-.24a5.19,5.19,0,0,1-1.25-.37,7,7,0,0,1-.95-.56,2,2,0,0,1-.68-.78,2.33,2.33,0,0,1-.23-1,4.63,4.63,0,0,1,.9-2.87,6.4,6.4,0,0,1,2.33-1.89,4.32,4.32,0,0,1-1.51-.72,1.4,1.4,0,0,1-.64-1.16,2.72,2.72,0,0,1,.07-.61,4.45,4.45,0,0,1,.15-.58,3.14,3.14,0,0,1,.26-.59c.13-.22.22-.4.3-.53a4.94,4.94,0,0,1,.36-.54l.34-.47.36-.45.31-.38a9.6,9.6,0,0,1-2.15-6.44,10.53,10.53,0,0,1,.7-4,6.15,6.15,0,0,1,2.19-2.8,6,6,0,0,1,3.55-1,6,6,0,0,1,2.08.33,4.59,4.59,0,0,1,1.45.85,6.88,6.88,0,0,1,1.1,1.35,4.3,4.3,0,0,1,3.62-2.52h.34v3.51h-.27c-.48,0-.85,0-1.09,0a3.28,3.28,0,0,0-.82.14,1.47,1.47,0,0,0-.72.39,8.51,8.51,0,0,1,.52,1.74,9.24,9.24,0,0,1,.23,2,10.88,10.88,0,0,1-.68,4,6,6,0,0,1-2.16,2.77,6.14,6.14,0,0,1-3.6,1l-2.16-.26a3,3,0,0,1-.17.3l-.21.34a1.69,1.69,0,0,0-.14.35,1.15,1.15,0,0,0-.07.39.89.89,0,0,0,.42.74,2.84,2.84,0,0,0,1.16.44,12.67,12.67,0,0,0,1.41.21c.46,0,1,.08,1.52.11s1,.06,1.16.09c.63.09,1.2.2,1.7.31a8.92,8.92,0,0,1,1.53.52,4.44,4.44,0,0,1,1.28.8,3.61,3.61,0,0,1,.83,1.21,4.11,4.11,0,0,1,.33,1.69,5.18,5.18,0,0,1-.41,2.1,4.55,4.55,0,0,1-1.1,1.53,5.76,5.76,0,0,1-1.66,1,9.27,9.27,0,0,1-2.05.57A15.1,15.1,0,0,1,450.15,145Zm0-3.17H451c.24,0,.51,0,.83-.07a4.14,4.14,0,0,0,.81-.16,2.9,2.9,0,0,0,.65-.28,1.21,1.21,0,0,0,.48-.44,1.24,1.24,0,0,0,.17-.63c0-1.2-1.15-1.93-3.44-2.2l-3.54-.42a3.82,3.82,0,0,0-1.11,1.36,4,4,0,0,0-.46,1.86.63.63,0,0,0,.18.46,1.16,1.16,0,0,0,.54.3c.25.07.49.12.74.17a7,7,0,0,0,.9.08l.89,0,.86,0Zm-1.07-12.64q2.69,0,2.68-4.57a12.78,12.78,0,0,0-.11-1.7,7.53,7.53,0,0,0-.41-1.53,2.68,2.68,0,0,0-.84-1.17,2.05,2.05,0,0,0-1.32-.43,2.09,2.09,0,0,0-1.34.43,2.58,2.58,0,0,0-.83,1.17,7.5,7.5,0,0,0-.4,1.53,11.3,11.3,0,0,0-.11,1.7Q446.4,129.15,449.08,129.14Z"/><path class="cls-2" d="M458,131v-3.22h6.44V131Z"/><path class="cls-2" d="M485.45,136.82q-1.5,2-4.95,2t-4.95-2a9.61,9.61,0,0,1-1.49-5.81v-6.44a9.59,9.59,0,0,1,1.49-5.8q1.49-2,4.95-2t4.95,2a9.66,9.66,0,0,1,1.49,5.8V131A9.68,9.68,0,0,1,485.45,136.82Zm-5.75-1.65a2.2,2.2,0,0,0,.8.14,2.14,2.14,0,0,0,.79-.14,1.93,1.93,0,0,0,.57-.32,1.36,1.36,0,0,0,.38-.57c.1-.25.18-.48.24-.67a4.27,4.27,0,0,0,.11-.82c0-.36,0-.64.05-.84v-8.31c0-.2,0-.49-.05-.85a4.4,4.4,0,0,0-.11-.82q-.09-.28-.24-.66a1.36,1.36,0,0,0-.38-.57,1.94,1.94,0,0,0-.57-.33,2.15,2.15,0,0,0-.79-.13,2.2,2.2,0,0,0-.8.13,1.94,1.94,0,0,0-.57.33,1.46,1.46,0,0,0-.38.57,5.9,5.9,0,0,0-.23.66,3.59,3.59,0,0,0-.12.82c0,.36,0,.65,0,.85s0,.52,0,.93V131c0,.42,0,.73,0,.94s0,.48,0,.84a3.5,3.5,0,0,0,.12.82,6,6,0,0,0,.23.67,1.46,1.46,0,0,0,.38.57A1.93,1.93,0,0,0,479.7,135.17Z"/><path class="cls-2" d="M497.71,145H496.4l-1.38,0a12.6,12.6,0,0,1-1.45-.12c-.4-.06-.84-.14-1.35-.24a5.34,5.34,0,0,1-1.25-.37,6.85,6.85,0,0,1-.94-.56,2,2,0,0,1-.68-.78,2.33,2.33,0,0,1-.23-1,4.63,4.63,0,0,1,.9-2.87,6.45,6.45,0,0,1,2.32-1.89,4.5,4.5,0,0,1-1.51-.72,1.42,1.42,0,0,1-.64-1.16,3.46,3.46,0,0,1,.07-.61c0-.21.1-.4.15-.58a4.14,4.14,0,0,1,.27-.59l.29-.53q.12-.19.36-.54l.35-.47.36-.45a4.79,4.79,0,0,0,.3-.38,9.65,9.65,0,0,1-2.15-6.44,10.52,10.52,0,0,1,.71-4,6.15,6.15,0,0,1,2.19-2.8,6,6,0,0,1,3.54-1,5.93,5.93,0,0,1,2.08.33,4.65,4.65,0,0,1,1.46.85,6.52,6.52,0,0,1,1.09,1.35,4.3,4.3,0,0,1,3.63-2.52h.33v3.51H505c-.49,0-.85,0-1.1,0a3.35,3.35,0,0,0-.82.14,1.56,1.56,0,0,0-.72.39,8.45,8.45,0,0,1,.53,1.74,9.9,9.9,0,0,1,.23,2,10.88,10.88,0,0,1-.68,4,6.07,6.07,0,0,1-2.17,2.77,6.14,6.14,0,0,1-3.6,1l-2.16-.26a1.76,1.76,0,0,1-.17.3l-.21.34a2.53,2.53,0,0,0-.14.35,1.46,1.46,0,0,0-.07.39.89.89,0,0,0,.42.74,2.9,2.9,0,0,0,1.16.44,12.5,12.5,0,0,0,1.42.21c.45,0,1,.08,1.52.11s.94.06,1.15.09c.64.09,1.21.2,1.71.31a9.13,9.13,0,0,1,1.52.52,4.5,4.5,0,0,1,1.29.8,3.76,3.76,0,0,1,.83,1.21,4.28,4.28,0,0,1,.32,1.69,5,5,0,0,1-.41,2.1,4.42,4.42,0,0,1-1.1,1.53,5.76,5.76,0,0,1-1.66,1,9.34,9.34,0,0,1-2,.57A15.29,15.29,0,0,1,497.71,145Zm0-3.17h.81c.24,0,.52,0,.83-.07a4.11,4.11,0,0,0,.82-.16,3.36,3.36,0,0,0,.65-.28,1.21,1.21,0,0,0,.48-.44,1.24,1.24,0,0,0,.17-.63c0-1.2-1.15-1.93-3.44-2.2l-3.54-.42a3.84,3.84,0,0,0-1.12,1.36,4,4,0,0,0-.46,1.86.6.6,0,0,0,.19.46,1.16,1.16,0,0,0,.54.3c.24.07.49.12.74.17a7,7,0,0,0,.9.08l.89,0,.86,0Zm-1.08-12.64q2.69,0,2.69-4.57a11.24,11.24,0,0,0-.12-1.7,7.5,7.5,0,0,0-.4-1.53,2.68,2.68,0,0,0-.84-1.17,2.08,2.08,0,0,0-1.33-.43,2.11,2.11,0,0,0-1.34.43,2.66,2.66,0,0,0-.83,1.17,8.18,8.18,0,0,0-.39,1.53,11.24,11.24,0,0,0-.12,1.7C494,127.62,494.85,129.14,496.63,129.14Z"/><path class="cls-2" d="M520.46,138.83a4.7,4.7,0,0,1-3.68-1.29,5.87,5.87,0,0,1-1.18-3.91V120.28h-2.15v-3.22h2.15v-7.52h4.29v7.52h3.22v3.22h-3.22v12.53a3.87,3.87,0,0,0,.36,1.9,1.51,1.51,0,0,0,1.42.6,9.78,9.78,0,0,0,1.44-.17v3.49A22.88,22.88,0,0,1,520.46,138.83Z"/><path class="cls-2" d="M526.53,138.53V117.06h4.29v2.87a6.6,6.6,0,0,1,1.91-2.23,4.48,4.48,0,0,1,2.77-.94l.69.06v4.75a6.51,6.51,0,0,0-2.38-.47,2.92,2.92,0,0,0-2.16.81,2.82,2.82,0,0,0-.83,2.13v14.49Z"/><path class="cls-2" d="M543,138.83a3.79,3.79,0,0,1-3-1.55,5.44,5.44,0,0,1-1.25-3.5,7.35,7.35,0,0,1,.53-2.83,9.06,9.06,0,0,1,1.11-2,7,7,0,0,1,2-1.58,19.38,19.38,0,0,1,2.08-1.11c.47-.2,1.28-.53,2.45-1l.45-.19V123.5a5.71,5.71,0,0,0-.45-2.52,1.73,1.73,0,0,0-1.7-.9,1.7,1.7,0,0,0-1.58.76A4.43,4.43,0,0,0,543,123c0,.12,0,.3,0,.55h-4.29a7.06,7.06,0,0,1,1.73-4.92,7,7,0,0,1,9.43,0,6.9,6.9,0,0,1,1.72,4.89v9.66a20.85,20.85,0,0,0,.56,5.37h-4.28l-.57-3.22c-.23.45-.41.79-.55,1a9.59,9.59,0,0,1-.61.91,3.36,3.36,0,0,1-1.81,1.35A3.79,3.79,0,0,1,543,138.83Zm2.15-3.52A1.62,1.62,0,0,0,546,135a2.88,2.88,0,0,0,.65-.52c.14-.17.32-.39.53-.67l.09-.12v-5.94c-.18.13-.48.32-.89.57l-1,.63c-.25.17-.54.39-.89.67a4.07,4.07,0,0,0-.8.83,3.93,3.93,0,0,0-.51,1,3.44,3.44,0,0,0-.22,1.19C543,134.42,543.73,135.31,545.16,135.31Z"/><path class="cls-2" d="M555.58,138.53V117.06h4.29v2.31c.64-.58,1.16-1,1.56-1.33a6.58,6.58,0,0,1,1.67-.87,6.14,6.14,0,0,1,2.27-.41,2.78,2.78,0,0,1,2.23,1,3.7,3.7,0,0,1,.86,2.47v18.3h-4.29v-16.1a3.24,3.24,0,0,0-.32-1.64,1.43,1.43,0,0,0-1.29-.51,2.68,2.68,0,0,0-1.1.23,4.72,4.72,0,0,0-.82.41c-.18.13-.43.34-.77.62v17Z"/><path class="cls-2" d="M578.25,138.83a5.78,5.78,0,0,1-4.26-1.58,8.23,8.23,0,0,1-2.19-4.09l3.22-1.07c.78,2.15,1.85,3.22,3.23,3.22a1.95,1.95,0,0,0,2.14-2.15,3.25,3.25,0,0,0-1.07-2.48l-4.3-3.22a11.56,11.56,0,0,1-1.2-.92,7.67,7.67,0,0,1-1-1,4.55,4.55,0,0,1-.77-1.4,5.27,5.27,0,0,1-.26-1.67,5.16,5.16,0,0,1,1.76-4.21,7.06,7.06,0,0,1,4.69-1.46,6.72,6.72,0,0,1,2.51.44,5.21,5.21,0,0,1,1.89,1.25,7.43,7.43,0,0,1,1.26,1.79,9.73,9.73,0,0,1,.78,2.19l-3.22,1.07c-.16-.43-.32-.79-.47-1.1a8,8,0,0,0-.63-1,3,3,0,0,0-.93-.83,2.52,2.52,0,0,0-1.19-.29,2,2,0,0,0-2.15,2.15,2.29,2.29,0,0,0,1.07,1.81l4.3,3.22a11.56,11.56,0,0,1,1.23,1.1,10.71,10.71,0,0,1,1,1.22,5.26,5.26,0,0,1,.73,1.55,6.37,6.37,0,0,1,.26,1.83,5.16,5.16,0,0,1-1.76,4.21A7.1,7.1,0,0,1,578.25,138.83Z"/><path class="cls-2" d="M587.85,145V117.06h4.3v2.15c.34-.37.58-.63.72-.76s.37-.34.69-.62a4,4,0,0,1,.86-.59,6,6,0,0,1,.92-.32,4.18,4.18,0,0,1,1.17-.16,4.6,4.6,0,0,1,1.94.39,4.78,4.78,0,0,1,1.41.95,4.33,4.33,0,0,1,.94,1.58,14.88,14.88,0,0,1,.58,1.87,14.48,14.48,0,0,1,.29,2.27c.07,1,.11,1.72.12,2.3s0,1.4,0,2.43v.32a26.26,26.26,0,0,1-.14,2.71,17.1,17.1,0,0,1-.52,2.66,9.68,9.68,0,0,1-1,2.34,4.87,4.87,0,0,1-1.54,1.62,4,4,0,0,1-2.21.63,6,6,0,0,1-4.29-2.23V145Zm7.52-9.66a1.51,1.51,0,0,0,1.15-.5,3.22,3.22,0,0,0,.67-1.44,13.22,13.22,0,0,0,.28-1.84c0-.61.08-1.33.08-2.14l0-2.84c0-.5,0-.91,0-1.21s0-.72-.06-1.23-.08-.92-.14-1.25-.16-.68-.28-1.07a2.72,2.72,0,0,0-.45-.92,2,2,0,0,0-.67-.57,1.79,1.79,0,0,0-.93-.24,3.75,3.75,0,0,0-.48,0c-.15,0-.3.06-.47.11l-.4.14a4.19,4.19,0,0,0-.41.19l-.36.19-.38.23-.33.2v13.29A6.22,6.22,0,0,0,595.37,135.31Z"/><path class="cls-2" d="M616.62,136.82q-1.5,2-5,2t-4.95-2a9.61,9.61,0,0,1-1.5-5.81v-6.44a9.59,9.59,0,0,1,1.5-5.8q1.49-2,4.95-2t5,2a9.66,9.66,0,0,1,1.49,5.8V131A9.68,9.68,0,0,1,616.62,136.82Zm-5.75-1.65a2.33,2.33,0,0,0,1.59,0,1.93,1.93,0,0,0,.57-.32,1.46,1.46,0,0,0,.38-.57c.1-.25.18-.48.24-.67a4.27,4.27,0,0,0,.11-.82c0-.36,0-.64,0-.84s0-.52,0-.94v-6.44c0-.41,0-.72,0-.93s0-.49,0-.85a4.4,4.4,0,0,0-.11-.82q-.09-.28-.24-.66a1.46,1.46,0,0,0-.38-.57,1.94,1.94,0,0,0-.57-.33,2.5,2.5,0,0,0-1.59,0,1.94,1.94,0,0,0-.57.33,1.46,1.46,0,0,0-.38.57,5.9,5.9,0,0,0-.23.66,3.59,3.59,0,0,0-.12.82c0,.36,0,.65,0,.85s0,.52,0,.93V131c0,.42,0,.73,0,.94s0,.48,0,.84a3.5,3.5,0,0,0,.12.82,6,6,0,0,0,.23.67,1.46,1.46,0,0,0,.38.57A1.93,1.93,0,0,0,610.87,135.17Z"/><path class="cls-2" d="M621.82,138.53V117.06h4.3v2.87a6.57,6.57,0,0,1,1.9-2.23,4.49,4.49,0,0,1,2.78-.94l.68.06v4.75a6.47,6.47,0,0,0-2.38-.47,3,3,0,0,0-2.16.81,2.82,2.82,0,0,0-.82,2.13v14.49Z"/><path class="cls-2" d="M640.84,138.83a4.71,4.71,0,0,1-3.68-1.29,5.87,5.87,0,0,1-1.18-3.91V120.28h-2.15v-3.22H636v-7.52h4.29v7.52h3.23v3.22h-3.23v12.53a3.87,3.87,0,0,0,.36,1.9,1.51,1.51,0,0,0,1.42.6,9.74,9.74,0,0,0,1.45-.17v3.49A23.19,23.19,0,0,1,640.84,138.83Z"/><path class="cls-2" d="M651.78,138.83a4.05,4.05,0,0,1-2.49-.8,5.19,5.19,0,0,1-1.64-2.18,14.31,14.31,0,0,1-.87-2.86,20.89,20.89,0,0,1-.35-3.2c0-.53,0-1.81,0-3.86,0-.74.06-1.4.1-2s.12-1.22.23-1.87a11.23,11.23,0,0,1,.4-1.72,7.15,7.15,0,0,1,.65-1.44,4,4,0,0,1,.94-1.15A3.85,3.85,0,0,1,650,117a5.18,5.18,0,0,1,1.67-.26,4.54,4.54,0,0,1,1.35.19,4.22,4.22,0,0,1,1.2.6c.38.28.69.52.92.73s.53.52.9.91v-10.7h4.29v30h-4.29v-1.95a10.29,10.29,0,0,1-2,1.63A4.4,4.4,0,0,1,651.78,138.83Zm1.07-3.52a8.77,8.77,0,0,0,3.23-.67V121.13a6.24,6.24,0,0,0-3.23-.85,1.78,1.78,0,0,0-1.07.31,1.83,1.83,0,0,0-.65.91,6.25,6.25,0,0,0-.32,1.22,10.18,10.18,0,0,0-.12,1.48c0,2.51,0,4.49,0,6a17.41,17.41,0,0,0,.12,1.91,10.56,10.56,0,0,0,.32,1.62,2.76,2.76,0,0,0,.67,1.2A1.46,1.46,0,0,0,652.85,135.31Z"/><path class="cls-2" d="M668.24,138.83a3.78,3.78,0,0,1-3-1.55,5.39,5.39,0,0,1-1.25-3.5,7.35,7.35,0,0,1,.52-2.83,9.46,9.46,0,0,1,1.12-2,7,7,0,0,1,2-1.58,20.39,20.39,0,0,1,2.08-1.11c.47-.2,1.29-.53,2.45-1l.45-.19V123.5a5.71,5.71,0,0,0-.45-2.52,2,2,0,0,0-3.28-.14,4.32,4.32,0,0,0-.54,2.11c0,.12,0,.3,0,.55H664a7.06,7.06,0,0,1,1.72-4.92,7,7,0,0,1,9.44,0,7,7,0,0,1,1.72,4.89v9.66a20.91,20.91,0,0,0,.55,5.37H673.1l-.57-3.22c-.22.45-.4.79-.54,1s-.35.55-.61.91a3.44,3.44,0,0,1-1.82,1.35A3.73,3.73,0,0,1,668.24,138.83Zm2.15-3.52a1.64,1.64,0,0,0,.88-.27,2.8,2.8,0,0,0,.64-.52c.15-.17.33-.39.54-.67a.48.48,0,0,1,.08-.12v-5.94c-.18.13-.47.32-.89.57l-1,.63c-.25.17-.55.39-.89.67a4.45,4.45,0,0,0-.81.83,3.92,3.92,0,0,0-.5,1,3.22,3.22,0,0,0-.22,1.19C668.24,134.42,669,135.31,670.39,135.31Z"/><path class="cls-2" d="M686.78,138.83a4.72,4.72,0,0,1-3.69-1.29,5.87,5.87,0,0,1-1.18-3.91V120.28h-2.15v-3.22h2.15v-7.52h4.3v7.52h3.22v3.22h-3.22v12.53a3.89,3.89,0,0,0,.35,1.9,1.51,1.51,0,0,0,1.42.6,9.74,9.74,0,0,0,1.45-.17v3.49A23.2,23.2,0,0,1,686.78,138.83Z"/><path class="cls-2" d="M696.83,138.83a3.79,3.79,0,0,1-3-1.55,5.39,5.39,0,0,1-1.25-3.5,7.17,7.17,0,0,1,.53-2.83,9.06,9.06,0,0,1,1.11-2,7.1,7.1,0,0,1,2-1.58,20.39,20.39,0,0,1,2.08-1.11c.47-.2,1.29-.53,2.45-1l.46-.19V123.5a5.56,5.56,0,0,0-.46-2.52,1.71,1.71,0,0,0-1.69-.9,1.73,1.73,0,0,0-1.59.76,4.43,4.43,0,0,0-.54,2.11c0,.12,0,.3,0,.55h-4.29a7.06,7.06,0,0,1,1.73-4.92,7,7,0,0,1,9.43,0,6.9,6.9,0,0,1,1.72,4.89v9.66a21.37,21.37,0,0,0,.55,5.37H701.7l-.57-3.22c-.23.45-.41.79-.55,1a9.59,9.59,0,0,1-.61.91,3.63,3.63,0,0,1-.81.84,3.6,3.6,0,0,1-1,.51A3.83,3.83,0,0,1,696.83,138.83Zm2.15-3.52a1.62,1.62,0,0,0,.88-.27,2.88,2.88,0,0,0,.65-.52c.14-.17.32-.39.53-.67a.46.46,0,0,1,.09-.12v-5.94c-.18.13-.48.32-.89.57l-1,.63c-.25.17-.54.39-.89.67a4.45,4.45,0,0,0-.81.83,4.3,4.3,0,0,0-.5,1,3.22,3.22,0,0,0-.22,1.19C696.83,134.42,697.55,135.31,699,135.31Z"/></svg>